<?xml version="1.0" encoding="utf-8"?>
<!-- Generator: Adobe Illustrator 19.2.1, SVG Export Plug-In . SVG Version: 6.00 Build 0)  -->
<svg version="1.1" id="Layer_1" xmlns="http://www.w3.org/2000/svg" xmlns:xlink="http://www.w3.org/1999/xlink" x="0px" y="0px"
	 viewBox="0 0 50 50" style="enable-background:new 0 0 50 50;" xml:space="preserve">
<style type="text/css">
	.st0{fill:#A8DADB;}
	.st1{fill:#00433F;}
</style>
<g>
	<circle class="st0" cx="25" cy="25" r="25"/>
	<path class="st1" d="M25,0C11.2,0,0,11.2,0,25c0,5.8,2,11.1,5.3,15.4c0.5-2.2,1.8-4,3.5-5.5c2.1-1.9,4.6-3,7.3-3.9
		c0.4-0.1,0.6-0.1,0.9,0.2c2,1.9,4.3,3,7,3.2c3.5,0.3,6.5-0.9,9.1-3.3c0.3-0.3,0.5-0.3,0.8-0.2c1.7,0.6,3.4,1.3,4.9,2.2
		c2,1.2,3.8,2.7,4.9,4.9c0.4,0.8,0.7,1.6,1,2.4C48,36.1,50,30.8,50,25C50,11.2,38.8,0,25,0z M31.6,28.7c-3.9,3.8-9.4,3.7-13.3-0.1
		c-4.6-4.6-4.5-13,0.3-17.4c4.3-4,10.8-3.3,14.2,1.6c1.5,2.2,2.3,4.6,2.3,7.5C35,23.3,34,26.3,31.6,28.7z"/>
</g>
</svg>
