<?xml version="1.0" encoding="utf-8"?>
<!-- Generator: Adobe Illustrator 19.2.1, SVG Export Plug-In . SVG Version: 6.00 Build 0)  -->
<svg version="1.1" id="Layer_1" xmlns="http://www.w3.org/2000/svg" xmlns:xlink="http://www.w3.org/1999/xlink" x="0px" y="0px"
	 viewBox="0 0 146.1 177.8" style="enable-background:new 0 0 146.1 177.8;" xml:space="preserve">
<style type="text/css">
	.st0{fill:#A8DADB;}
	.st1{fill:#00433F;}
</style>
<g>
	<g>
		<circle class="st0" cx="71.4" cy="122.8" r="55"/>
		<path class="st1" d="M71.4,67.8c-30.4,0-55,24.6-55,55c0,12.8,4.4,24.4,11.7,33.9c1.1-4.8,4-8.8,7.7-12.1
			c4.6-4.2,10.1-6.6,16.1-8.6c0.9-0.2,1.3-0.2,2,0.4c4.4,4.2,9.5,6.6,15.4,7c7.7,0.7,14.3-2,20-7.3c0.7-0.7,1.1-0.7,1.8-0.4
			c3.7,1.3,7.5,2.9,10.8,4.8c4.4,2.6,8.4,5.9,10.8,10.8c0.9,1.8,1.5,3.5,2.2,5.3c7.3-9.5,11.7-21.1,11.7-33.9
			C126.4,92.4,101.7,67.8,71.4,67.8z M85.9,130.9c-8.6,8.4-20.7,8.1-29.3-0.2c-10.1-10.1-9.9-28.6,0.7-38.3
			c9.5-8.8,23.8-7.3,31.2,3.5c3.3,4.8,5.1,10.1,5.1,16.5C93.4,119,91.2,125.6,85.9,130.9z"/>
	</g>
	<path class="st1" d="M23.3,86.7c-0.9-1.7-1.8-3.4-2.6-5.2c-3.8-8.4-8.2-16.6-13-24.5c-0.4-0.7-0.9-0.7-1.6-0.5
		c-2.4,0.7-4.6-0.2-5.6-2.3c-1-2-0.6-4.2,1.2-5.8c1.6-1.4,4.3-1.4,5.9-0.1c2.1,1.8,2.5,4.1,1.2,6.2c-0.2,0.4-0.5,0.7-0.9,1.2
		c1.5,0.9,2.8,1.9,4.3,2.7c3.8,2.3,7.7,4.6,11.5,6.8c3.1,1.8,7.6,0.1,7.9-4.8c0.5-7.8,0.1-15.6-2.1-23.2c-0.3-0.9-0.1-2.1-0.6-2.7
		c-0.4-0.4-1.6,0-2.5,0c-2.1-0.2-4.1-2.1-4.3-4c-0.3-2.3,1-4.5,2.9-5.2c2.2-0.9,4.6-0.2,5.9,1.6c1.2,1.7,1.1,4.3-0.4,5.9
		c-0.7,0.8-0.7,1.3-0.1,2.1c4.5,5.6,9,11,15.3,14.6c4,2.3,10.4,2.2,14.2-2.1c3.5-4,5.9-8.6,7.7-13.5c1.8-5.2,3.2-10.6,4.8-15.9
		c0.1-0.3,0-0.7,0.1-1c-5.7-1.4-8.6-4.9-8-9.9C65.1,3.3,68.9,0,73.1,0c4.3,0.1,8.1,3.5,8.4,7.7c0.4,4-2,8.7-8.2,9.6
		c0.5,1.8,1,3.6,1.4,5.4c1.5,6.1,3.3,12,6.2,17.5c1.3,2.4,3,4.7,4.7,6.9c3.8,4.9,10.2,5.4,15.4,2.3c4.6-2.8,8.3-6.6,11.7-10.7
		c1.2-1.5,2.4-3,3.3-4.1c-0.7-1.8-1.5-3.2-1.7-4.7c-0.2-2.7,2.1-4.8,4.8-4.7c3,0.2,4.9,2.6,4.4,5.7c-0.4,2.5-3.1,4.4-5.6,3.8
		c-0.9-0.2-1.2,0-1.3,0.9c-0.7,4.3-1.5,8.5-2.1,12.7c-0.4,3-0.5,6.1-0.5,9.2c0,1.6,0.3,3.2,0.7,4.7c0.8,3.1,3.6,4.7,6.5,3.6
		c2.4-0.9,4.6-2.1,6.8-3.4c3.3-2,6.6-4.2,9.9-6.4c-0.3-0.4-0.5-0.7-0.7-1c-1.1-1.7-1.3-3.4-0.2-5.2c1.2-1.8,2.9-2.6,5.1-2.2
		c1.9,0.4,3,1.7,3.5,3.5c1,3.4-2.3,6.7-5.8,5.7c-1.1-0.3-1.5,0-2.1,0.9c-5.5,9-11.7,22.6-16.1,32.2C102.4,59.3,51.1,49.4,23.3,86.7z
		"/>
</g>
</svg>
