<?xml version="1.0" encoding="utf-8"?>
<!-- Generator: Adobe Illustrator 19.2.1, SVG Export Plug-In . SVG Version: 6.00 Build 0)  -->
<svg version="1.1" id="Layer_1" xmlns="http://www.w3.org/2000/svg" xmlns:xlink="http://www.w3.org/1999/xlink" x="0px" y="0px"
	 viewBox="0 0 196.8 196.9" style="enable-background:new 0 0 196.8 196.9;" xml:space="preserve">
<style type="text/css">
	.st0{fill:#A8DADB;}
</style>
<g>
	<path class="st0" d="M124.8,87.5c-20.3,22.9-40.8,45.6-60.9,68.8c-7.1,8.2-14.6,12.5-25.3,7.5c-9.7,9.7-19.1,19.3-28.7,28.8
		c-2.3,2.4-4.9,6.6-8.5,3c-3.5-3.6,0.6-6.2,3-8.6c9.7-9.7,19.3-19.3,28.8-28.7c-3.9-11-2.6-16.2,5.7-23.6
		c24.2-21.5,48.3-42.9,72.5-64.3c1.2-1.1,2.5-2,5.2-4.2c-1.7,11.3,4.2,14.7,13.9,14.8C127.9,83.9,126.4,85.7,124.8,87.5z"/>
	<path class="st0" d="M159.5,27.4c0.4,1.8-0.4,4.6-1.7,5.9c-10.2,10.5-20.6,20.8-31,31.2c-0.8,0.9-1.8,1.6-3.1,2.6
		c-2.2-9.5-4.3-18.4-6.2-27.3c-0.2-1.4,0-3.6,0.9-4.5c11.4-11.6,23-23.1,35.3-35.3C155.9,9.9,158,18.6,159.5,27.4z"/>
	<path class="st0" d="M161.3,78.9c-0.6,0.6-2.1,0.9-3.1,0.7c-9.4-2-18.7-4.2-28.6-6.4c12.1-12.2,23.7-23.9,35.3-35.5
		c0.6-0.6,1.8-1.2,2.6-1c9.6,2.1,19.1,4.3,29.3,6.6C184.6,55.5,173,67.2,161.3,78.9z"/>
</g>
</svg>
