<?xml version="1.0" encoding="utf-8"?>
<!-- Generator: Adobe Illustrator 19.2.1, SVG Export Plug-In . SVG Version: 6.00 Build 0)  -->
<svg version="1.1" id="Layer_1" xmlns="http://www.w3.org/2000/svg" xmlns:xlink="http://www.w3.org/1999/xlink" x="0px" y="0px"
	 viewBox="0 0 133.5 57.6" style="enable-background:new 0 0 133.5 57.6;" xml:space="preserve">
<style type="text/css">
	.st0{fill:#FFFFFF;}
</style>
<g>
	<g>
		<path class="st0" d="M20.6,25.1h8.2v4.4c-1.6,1.1-4.2,1.8-6.8,1.8c-6.1,0-10.5-4.5-10.5-10.6v-0.1c0-5.9,4.3-10.6,9.8-10.6
			c3.8,0,6.5,1.3,9.3,3.6L37,6.2c-4.1-3.5-8.9-5.6-15.6-5.6c-11.9,0-20,8.8-20,20v0.1c0,11.6,8.2,19.9,20.2,19.9
			c7,0,12.6-2.6,16.7-5.9V16.5H23.5L20.6,25.1z"/>
		<path class="st0" d="M96.2,17.8l2-8h-9.6V0.7l-9.2,4.5v4.5v8v13c0,5.8,3.6,9.3,9.3,9.3h8.4v-8.4h-5c-2.5,0-3.5-1-3.5-3.6V17.8
			H96.2z"/>
		<path class="st0" d="M122.3,9.8v1.8c-1.8-1.5-4.2-2.3-6.7-2.3c-9,0-14.7,7.3-14.7,15.6s5.7,15.6,14.7,15.6c2.5,0,4.9-0.8,6.7-2.3
			V40h9.2V9.8H122.3z M122.3,29.6c-1.2,1.6-2.9,2.6-5.2,2.6c-4.4,0-7-3.3-7-7.3s2.6-7.3,7-7.3c2.2,0,3.9,0.9,5.2,2.5V29.6z"/>
		<path class="st0" d="M58.9,9.3c-9.3,0-15.6,6.7-15.6,15.6c0,9.3,7.5,15.6,15.5,15.6c6,0,10.9-2.9,13.7-7.3l-7.3-4.9
			c-1.2,2.2-3.3,3.8-6.5,3.8c-2.6,0-5.2-1.1-6.5-5.2c0-0.1-0.1-0.3-0.1-0.5h8h1.2h12.2c0.1-0.9,0.2-1.8,0.2-2.7
			C73.6,14.3,66.7,9.3,58.9,9.3z M61.1,21.2h-1.2h-7.7c0-0.1,0-0.2,0.1-0.3c0.9-3.4,4-4.3,6.1-4.3c2.9,0,5.5,1.3,6.1,4.2l0.1,0.4
			L61.1,21.2z"/>
	</g>
	<g>
		<path class="st0" d="M85.7,52.1c0-1.6,0.4-2.9,1.1-3.9c0.7-1,1.7-1.5,3-1.5c1,0,1.9,0.4,2.5,1.1v-5.3h2.8v14.9h-2.5l-0.1-1.1
			c-0.7,0.9-1.6,1.3-2.7,1.3c-1.2,0-2.2-0.5-3-1.5C86.1,55.2,85.7,53.8,85.7,52.1z M88.5,52.3c0,1,0.2,1.7,0.5,2.3
			c0.3,0.5,0.8,0.8,1.5,0.8c0.9,0,1.5-0.4,1.8-1.1v-4.1c-0.3-0.7-1-1.1-1.8-1.1C89.2,49,88.5,50.1,88.5,52.3z"/>
		<path class="st0" d="M103.4,57.4c-0.1-0.3-0.2-0.6-0.3-0.9c-0.7,0.8-1.6,1.1-2.6,1.1c-1,0-1.9-0.3-2.6-0.9c-0.7-0.6-1-1.3-1-2.2
			c0-1.1,0.4-2,1.2-2.6c0.8-0.6,2-0.9,3.6-0.9h1.3v-0.6c0-0.5-0.1-0.9-0.4-1.2c-0.2-0.3-0.6-0.4-1.2-0.4c-0.5,0-0.8,0.1-1.1,0.3
			c-0.3,0.2-0.4,0.5-0.4,0.9h-2.8c0-0.6,0.2-1.2,0.6-1.7c0.4-0.5,0.9-0.9,1.6-1.2c0.7-0.3,1.5-0.4,2.3-0.4c1.3,0,2.3,0.3,3.1,1
			c0.8,0.6,1.1,1.6,1.1,2.7V55c0,1,0.1,1.7,0.4,2.3v0.2H103.4z M101.1,55.5c0.4,0,0.8-0.1,1.1-0.3c0.3-0.2,0.6-0.4,0.8-0.7v-1.8h-1
			c-1.4,0-2.1,0.5-2.2,1.5l0,0.2c0,0.3,0.1,0.6,0.4,0.9C100.3,55.4,100.7,55.5,101.1,55.5z"/>
		<path class="st0" d="M113.8,49.6c-0.4-0.1-0.7-0.1-1-0.1c-1.1,0-1.8,0.4-2.1,1.1v6.9H108V46.9h2.6l0.1,1.2c0.6-1,1.3-1.4,2.3-1.4
			c0.3,0,0.6,0,0.9,0.1L113.8,49.6z"/>
		<path class="st0" d="M119,44.4v2.6h1.8V49H119v5.2c0,0.4,0.1,0.7,0.2,0.8s0.4,0.3,0.9,0.3c0.3,0,0.6,0,0.8-0.1v2.1
			c-0.5,0.2-1.1,0.3-1.7,0.3c-2,0-3-1-3-3V49h-1.5v-2.1h1.5v-2.6H119z"/>
		<path class="st0" d="M128.1,54.5c0-0.3-0.2-0.6-0.5-0.8c-0.3-0.2-0.9-0.4-1.6-0.5c-2.5-0.5-3.7-1.6-3.7-3.2c0-0.9,0.4-1.7,1.2-2.3
			s1.8-0.9,3-0.9c1.3,0,2.4,0.3,3.2,0.9c0.8,0.6,1.2,1.4,1.2,2.4h-2.8c0-0.4-0.1-0.7-0.4-1c-0.3-0.3-0.7-0.4-1.2-0.4
			c-0.5,0-0.8,0.1-1.1,0.3c-0.3,0.2-0.4,0.5-0.4,0.8c0,0.3,0.1,0.6,0.4,0.8c0.3,0.2,0.8,0.4,1.5,0.5s1.3,0.3,1.8,0.5
			c1.5,0.5,2.2,1.5,2.2,2.8c0,1-0.4,1.7-1.2,2.3c-0.8,0.6-1.9,0.9-3.2,0.9c-0.9,0-1.7-0.2-2.3-0.5c-0.7-0.3-1.2-0.7-1.6-1.3
			c-0.4-0.5-0.6-1.1-0.6-1.8h2.7c0,0.5,0.2,0.9,0.6,1.1s0.8,0.4,1.4,0.4c0.5,0,0.9-0.1,1.2-0.3C127.9,55.1,128.1,54.8,128.1,54.5z"
			/>
	</g>
</g>
</svg>
