<svg width="785" height="446" viewBox="0 0 785 446" fill="none" xmlns="http://www.w3.org/2000/svg">
<path d="M225.996 136.644V246.76C221.688 251.976 215.036 257.638 206.039 263.745C197.042 269.725 185.448 274.878 171.255 279.203C157.063 283.529 139.893 285.692 119.746 285.692C101.879 285.692 85.596 282.766 70.8971 276.913C56.1981 270.933 43.5266 262.218 32.8826 250.768C22.3652 239.317 14.2554 225.322 8.55327 208.782C2.85109 192.115 0 173.095 0 151.72V134.353C0 112.979 2.72437 93.9584 8.17312 77.2914C13.7486 60.6245 21.6683 46.5657 31.9322 35.1151C42.1961 23.6645 54.4241 14.9494 68.6162 8.96962C82.8083 2.98987 98.5843 0 115.944 0C140.02 0 159.788 3.94409 175.247 11.8323C190.706 19.5932 202.491 30.4076 210.6 44.2756C218.837 58.0163 223.906 73.7926 225.806 91.6046H170.495C169.101 82.1897 166.44 73.9835 162.512 66.9859C158.584 59.9883 152.945 54.5175 145.596 50.5734C138.373 46.6293 128.996 44.6573 117.465 44.6573C107.961 44.6573 99.4713 46.6293 91.9952 50.5734C84.6457 54.3902 78.4366 60.0519 73.368 67.5584C68.2994 75.0649 64.4346 84.3526 61.7736 95.4215C59.1126 106.49 57.7821 119.34 57.7821 133.972V151.72C57.7821 166.224 59.1759 179.074 61.9637 190.27C64.7514 201.339 68.8697 210.691 74.3184 218.324C79.8939 225.831 86.7365 231.493 94.8462 235.309C102.956 239.126 112.396 241.035 123.167 241.035C132.164 241.035 139.64 240.271 145.596 238.745C151.678 237.218 156.556 235.373 160.231 233.21C164.033 230.92 166.947 228.757 168.975 226.721V177.484H116.895V136.644H225.996Z" fill="#fff"/>
<path d="M747.999 425.707C747.999 424.392 747.619 423.205 746.859 422.145C746.098 421.084 744.684 420.109 742.614 419.218C740.586 418.285 737.651 417.437 733.807 416.674C730.344 415.91 727.112 414.956 724.113 413.811C721.157 412.624 718.58 411.203 716.384 409.549C714.23 407.895 712.54 405.944 711.315 403.697C710.09 401.406 709.478 398.798 709.478 395.872C709.478 392.988 710.09 390.274 711.315 387.729C712.582 385.185 714.377 382.937 716.701 380.986C719.066 378.993 721.938 377.445 725.317 376.342C728.739 375.197 732.582 374.625 736.848 374.625C742.804 374.625 747.915 375.579 752.181 377.487C756.489 379.396 759.784 382.025 762.065 385.376C764.388 388.684 765.549 392.458 765.549 396.699H747.302C747.302 394.918 746.922 393.327 746.162 391.928C745.444 390.486 744.303 389.362 742.741 388.556C741.22 387.708 739.235 387.284 736.785 387.284C734.757 387.284 733.005 387.644 731.526 388.365C730.048 389.044 728.907 389.977 728.105 391.164C727.345 392.31 726.964 393.582 726.964 394.981C726.964 396.042 727.176 396.996 727.598 397.844C728.063 398.65 728.802 399.392 729.816 400.07C730.829 400.749 732.139 401.385 733.744 401.979C735.391 402.53 737.418 403.039 739.826 403.506C744.768 404.523 749.182 405.859 753.068 407.513C756.954 409.125 760.037 411.33 762.318 414.129C764.599 416.886 765.739 420.512 765.739 425.007C765.739 428.061 765.063 430.86 763.712 433.404C762.36 435.949 760.417 438.175 757.883 440.084C755.349 441.95 752.307 443.413 748.759 444.473C745.254 445.491 741.304 446 736.912 446C730.534 446 725.127 444.855 720.692 442.565C716.299 440.275 712.962 437.37 710.682 433.85C708.443 430.287 707.324 426.64 707.324 422.908H724.62C724.705 425.41 725.338 427.425 726.521 428.951C727.746 430.478 729.288 431.581 731.146 432.259C733.047 432.938 735.095 433.277 737.292 433.277C739.657 433.277 741.621 432.959 743.184 432.323C744.747 431.644 745.93 430.754 746.732 429.651C747.577 428.506 747.999 427.191 747.999 425.707Z" fill="#fff"/>
<path d="M320.272 278.058C332.944 283.147 347.263 285.692 363.229 285.692C376.534 285.692 388.382 283.911 398.772 280.348C409.163 276.659 418.033 271.951 425.383 266.226C432.859 260.501 438.751 254.521 443.059 248.287L416.449 219.279C410.24 227.167 402.827 233.083 394.211 237.027C385.721 240.844 376.534 242.752 366.65 242.752C358.667 242.752 351.508 241.353 345.172 238.554C338.963 235.755 333.641 231.811 329.206 226.721C324.897 221.632 321.54 215.589 319.132 208.591C317.793 204.485 316.848 200.159 316.295 195.614H284.159V158.972H316.96C317.252 156.885 317.596 154.849 317.992 152.865C319.639 145.104 322.046 138.361 325.214 132.636C328.509 126.911 332.754 122.458 337.949 119.277C343.144 116.096 349.354 114.506 356.576 114.506C365.066 114.506 372.036 116.287 377.484 119.849C382.933 123.412 386.988 128.246 389.649 134.353C392.437 140.333 393.831 147.14 393.831 154.774V158.972H316.96C316.127 164.916 315.711 171.277 315.711 178.056V185.69C315.711 189.05 315.899 192.304 316.275 195.454L316.295 195.614H447.621V172.713C447.621 157.573 445.657 143.832 441.729 131.491C437.801 119.022 431.972 108.335 424.242 99.4292C416.639 90.5232 407.199 83.6528 395.921 78.8181C384.644 73.9835 371.719 71.5661 357.146 71.5661C342.194 71.5661 328.762 74.1743 316.851 79.3907C304.94 84.4798 294.803 91.7955 286.439 101.338C278.203 110.88 271.867 122.139 267.432 135.117C262.997 148.094 260.78 162.407 260.78 178.056V185.69C260.78 199.431 263.124 212.408 267.812 224.622C272.501 236.709 279.217 247.332 287.96 256.493C296.83 265.653 307.601 272.842 320.272 278.058Z" fill="#fff"/>
<path d="M284.159 158.972V195.614H316.295L316.275 195.454C315.899 192.304 315.711 189.05 315.711 185.69V178.056C315.711 171.277 316.127 164.916 316.96 158.972H284.159Z" fill="#fff"/>
<path d="M544.178 114.315V75.383H489.437V114.315H544.178Z" fill="#fff"/>
<path fill-rule="evenodd" clip-rule="evenodd" d="M719.235 227.485C720.186 226.141 721.009 224.817 721.706 223.513V235.309C721.706 243.834 722.339 252.358 723.607 260.882C723.696 261.423 723.789 261.958 723.884 262.486C721.941 264.746 719.821 266.947 717.524 269.089C712.202 273.923 705.803 277.931 698.327 281.112C690.851 284.165 681.981 285.692 671.717 285.692C658.665 285.692 646.817 283.084 636.173 277.867C625.656 272.524 617.293 265.208 611.084 255.92C605.001 246.506 601.96 235.818 601.96 223.859C601.96 213.044 603.987 203.439 608.042 195.042C612.097 186.644 618.053 179.583 625.909 173.858C633.892 168.005 643.839 163.616 655.751 160.69C667.662 157.636 681.474 156.11 697.186 156.11H721.706H728.929L729.309 187.217H721.706H698.707C691.484 187.217 685.212 188.044 679.89 189.698C674.568 191.352 670.196 193.706 666.775 196.759C663.354 199.685 660.819 203.121 659.172 207.065C657.651 211.009 656.891 215.334 656.891 220.042C656.891 224.749 657.968 229.012 660.122 232.828C662.276 236.518 665.381 239.444 669.436 241.607C673.491 243.643 678.243 244.661 683.691 244.661C691.928 244.661 699.087 243.007 705.169 239.699C711.252 236.391 715.94 232.32 719.235 227.485Z" fill="#fff"/>
<path d="M721.706 235.309C721.706 243.834 722.339 252.358 723.607 260.882C723.696 261.423 723.789 261.958 723.884 262.486L723.964 262.393C726.49 259.446 728.715 256.398 730.639 253.249C734.187 247.651 736.975 242.243 739.002 237.027L724.557 213.744C724.465 216.868 723.515 220.124 721.706 223.513V235.309Z" fill="#fff"/>
<path d="M718.475 126.338C720.629 131.046 721.706 136.707 721.706 143.323V156.11H728.929L729.309 187.217H721.706V223.513C723.515 220.124 724.465 216.868 724.557 213.744L739.002 237.027C736.975 242.243 734.187 247.651 730.639 253.249C728.715 256.398 726.49 259.446 723.964 262.393L723.884 262.486C725.264 270.174 727.199 276.637 729.689 281.875H785V278.631C782.339 273.287 780.312 267.053 778.918 259.928C777.524 252.676 776.827 243.388 776.827 232.065V143.705C776.827 127.674 773.215 114.315 765.993 103.628C758.897 92.9405 749.14 84.9251 736.722 79.5815C724.303 74.2379 710.111 71.5661 694.145 71.5661C680.84 71.5661 668.802 73.2837 658.031 76.7189C647.387 80.154 638.201 84.9251 630.471 91.0321C622.741 97.0118 616.849 103.946 612.794 111.834C608.739 119.722 606.712 128.056 606.712 136.834H661.453C661.453 131.618 662.657 127.101 665.064 123.285C667.472 119.34 670.893 116.351 675.328 114.315C679.763 112.152 685.022 111.071 691.104 111.071C698.2 111.071 703.966 112.407 708.401 115.078C712.963 117.75 716.32 121.503 718.475 126.338Z" fill="#fff"/>
<path fill-rule="evenodd" clip-rule="evenodd" d="M700.544 375.897V388.874H688.76V375.897H700.544ZM670.513 375.897V388.874H660.629V375.897H670.513ZM670.513 375.897H688.76V358.912H670.513V375.897Z" fill="#fff"/>
<path d="M689.52 428.57C689.013 427.509 688.76 425.983 688.76 423.989V388.874H670.513V425.834C670.513 430.669 671.315 434.571 672.921 437.539C674.526 440.508 676.806 442.671 679.763 444.028C682.762 445.343 686.268 446 690.28 446C692.477 446 694.483 445.852 696.299 445.555C698.116 445.258 699.805 444.855 701.368 444.346L701.305 430.86C700.671 430.987 699.89 431.114 698.96 431.241C698.073 431.326 697.06 431.369 695.919 431.369C694.314 431.369 692.984 431.178 691.928 430.796C690.872 430.372 690.069 429.63 689.52 428.57Z" fill="#fff"/>
<path d="M688.76 388.874V375.897H670.513V388.874H688.76Z" fill="#fff"/>
<path fill-rule="evenodd" clip-rule="evenodd" d="M634.526 444.728V399.328V390.91L634.054 384.331L633.449 375.897H616.279V444.728H634.526Z" fill="#fff"/>
<path d="M654.864 392.437L655.18 375.452C654.505 375.197 653.639 375.006 652.583 374.879C651.527 374.71 650.492 374.625 649.478 374.625C646.268 374.625 643.417 375.388 640.925 376.915C638.433 378.442 636.321 380.605 634.589 383.404C634.406 383.707 634.228 384.016 634.054 384.331L634.526 390.91V399.328C635.124 397.984 635.905 396.81 636.87 395.808C638.137 394.536 639.7 393.582 641.559 392.946C643.459 392.267 645.698 391.928 648.274 391.928C649.288 391.928 650.407 391.991 651.632 392.119C652.9 392.204 653.977 392.31 654.864 392.437Z" fill="#fff"/>
<path fill-rule="evenodd" clip-rule="evenodd" d="M584.566 438.265C583.918 439.018 583.212 439.752 582.446 440.466C580.672 442.077 578.539 443.413 576.047 444.473C573.555 445.491 570.598 446 567.177 446C562.826 446 558.877 445.131 555.329 443.392C551.823 441.611 549.035 439.172 546.966 436.076C544.938 432.938 543.925 429.375 543.925 425.389C543.925 421.784 544.6 418.582 545.952 415.783C547.304 412.984 549.289 410.63 551.908 408.722C554.569 406.771 557.884 405.308 561.855 404.333C565.825 403.315 570.429 402.806 575.667 402.806H583.84V413.175H576.174C573.766 413.175 571.675 413.451 569.901 414.002C568.127 414.553 566.67 415.338 565.529 416.356C564.389 417.331 563.544 418.476 562.995 419.791C562.488 421.106 562.235 422.548 562.235 424.117C562.235 425.686 562.594 427.107 563.312 428.379C564.03 429.609 565.065 430.584 566.416 431.305C567.768 431.984 569.352 432.323 571.168 432.323C573.914 432.323 576.3 431.772 578.328 430.669C580.355 429.566 581.918 428.209 583.016 426.598C583.333 426.15 583.608 425.708 583.84 425.274V413.175H586.374L586.247 402.806H583.84V398.544C583.84 396.338 583.481 394.451 582.763 392.882C582.045 391.27 580.925 390.019 579.405 389.129C577.926 388.238 576.005 387.793 573.639 387.793C571.612 387.793 569.859 388.153 568.381 388.874C566.902 389.553 565.762 390.55 564.959 391.864C564.157 393.137 563.755 394.642 563.755 396.381H545.508C545.508 393.455 546.184 390.677 547.536 388.047C548.888 385.418 550.852 383.107 553.428 381.113C556.005 379.078 559.067 377.487 562.615 376.342C566.205 375.197 570.218 374.625 574.653 374.625C579.975 374.625 584.706 375.515 588.845 377.297C592.984 379.078 596.237 381.75 598.602 385.312C601.01 388.874 602.214 393.327 602.214 398.671V428.124C602.214 431.899 602.446 434.995 602.91 437.412C603.375 439.787 604.051 441.865 604.938 443.646V444.728H586.501C585.671 442.982 585.026 440.827 584.566 438.265Z" fill="#fff"/>
<path d="M586.374 413.175L586.247 402.806H583.84V413.175H586.374Z" fill="#fff"/>
<path fill-rule="evenodd" clip-rule="evenodd" d="M514.21 396.431V424.249C513.171 426.419 511.735 428.156 509.902 429.46C507.874 430.86 505.298 431.56 502.172 431.56C499.764 431.56 497.716 431.051 496.026 430.033C494.379 428.973 493.027 427.509 491.971 425.643C490.958 423.735 490.218 421.551 489.754 419.091C489.331 416.631 489.12 413.981 489.12 411.139V409.803C489.12 406.877 489.353 404.163 489.817 401.661C490.324 399.116 491.084 396.911 492.098 395.045C493.154 393.179 494.527 391.716 496.216 390.656C497.906 389.553 499.933 389.002 502.299 389.002C504.622 389.002 506.628 389.426 508.318 390.274C510.049 391.122 511.485 392.31 512.626 393.836C513.231 394.618 513.759 395.483 514.21 396.431ZM514.21 382.156V396.431C514.254 396.525 514.298 396.619 514.341 396.715C514.713 397.539 515.028 398.424 515.287 399.371C515.921 401.491 516.301 403.887 516.427 406.559V414.893C516.258 418.158 515.625 421.042 514.527 423.544C514.5 423.608 514.472 423.672 514.445 423.735C514.369 423.909 514.291 424.08 514.21 424.249V429.715L515.149 437.389C513.191 439.938 510.871 441.96 508.191 443.455C505.15 445.152 501.602 446 497.547 446C493.281 446 489.479 445.131 486.142 443.392C482.848 441.653 480.06 439.215 477.779 436.076C475.541 432.938 473.83 429.248 472.647 425.007C471.465 420.766 470.873 416.144 470.873 411.139V409.803C470.873 404.545 471.465 399.774 472.647 395.49C473.83 391.164 475.562 387.454 477.843 384.358C480.123 381.262 482.932 378.866 486.269 377.169C489.606 375.473 493.407 374.625 497.674 374.625C501.686 374.625 505.192 375.473 508.191 377.169C510.455 378.432 512.461 380.094 514.21 382.156ZM523.967 409.231V412.157C523.376 416.949 522.425 421.402 521.116 425.516C519.806 429.63 518.075 433.235 515.921 436.331L515.816 436.481C515.599 436.791 515.376 437.093 515.149 437.389L516.047 444.728H532.584V347.016H514.21V382.156C514.81 382.864 515.381 383.619 515.921 384.421C518.075 387.517 519.806 391.186 521.116 395.427C522.425 399.625 523.376 404.227 523.967 409.231Z" fill="#fff"/>
<path d="M521.116 395.427C519.806 391.186 518.075 387.517 515.921 384.421C515.381 383.619 514.81 382.864 514.21 382.156V396.431L514.341 396.715C514.713 397.539 515.028 398.424 515.287 399.371C515.921 401.491 516.301 403.887 516.427 406.559V414.893C516.258 418.158 515.625 421.042 514.527 423.544L514.445 423.735C514.369 423.909 514.291 424.08 514.21 424.249V429.715L515.149 437.389C515.376 437.093 515.599 436.791 515.816 436.481L515.921 436.331C518.075 433.235 519.806 429.63 521.116 425.516C522.425 421.402 523.376 416.949 523.967 412.157V409.231C523.376 404.227 522.425 399.625 521.116 395.427Z" fill="#fff"/>
<path fill-rule="evenodd" clip-rule="evenodd" d="M579.531 75.383L566.797 114.315H544.178V75.383H579.531ZM489.437 75.383H544.178V24.4279L489.437 63V75.383ZM489.437 114.315V225.195C489.437 239.699 491.845 251.404 496.66 260.31C501.475 269.216 508.318 275.704 517.188 279.776C526.184 283.72 536.702 285.692 548.74 285.692C555.329 285.692 561.348 285.247 566.797 284.356C572.245 283.465 577.314 282.257 582.002 280.73L581.812 240.271C579.912 240.653 577.567 241.035 574.78 241.416C572.119 241.671 569.077 241.798 565.656 241.798C560.841 241.798 556.849 241.226 553.682 240.08C550.514 238.808 548.106 236.582 546.459 233.401C544.938 230.22 544.178 225.64 544.178 219.66V114.315H489.437Z" fill="#fff"/>
</svg>
